<mxfile host="app.diagrams.net" agent="Mozilla/5.0 (Windows NT 10.0; Win64; x64) AppleWebKit/537.36 (KHTML, like Gecko) Chrome/138.0.0.0 Safari/537.36" version="28.0.6">
  <diagram name="Page-1" id="ugTnHmCjTcMLFi35S_T8">
    <mxGraphModel dx="830" dy="571" grid="1" gridSize="10" guides="1" tooltips="1" connect="1" arrows="1" fold="1" page="1" pageScale="1" pageWidth="850" pageHeight="1100" math="0" shadow="0">
      <root>
        <mxCell id="0" />
        <mxCell id="1" parent="0" />
        <mxCell id="Kg_sOJWb3HzbP19iZcao-3" value="" style="edgeStyle=orthogonalEdgeStyle;rounded=0;orthogonalLoop=1;jettySize=auto;html=1;fontSize=12;" edge="1" parent="1" source="Kg_sOJWb3HzbP19iZcao-1" target="Kg_sOJWb3HzbP19iZcao-2">
          <mxGeometry relative="1" as="geometry" />
        </mxCell>
        <mxCell id="Kg_sOJWb3HzbP19iZcao-1" value="Start" style="ellipse;whiteSpace=wrap;html=1;fontSize=12;" vertex="1" parent="1">
          <mxGeometry x="400" y="30" width="120" height="80" as="geometry" />
        </mxCell>
        <mxCell id="Kg_sOJWb3HzbP19iZcao-5" value="" style="edgeStyle=orthogonalEdgeStyle;rounded=0;orthogonalLoop=1;jettySize=auto;html=1;fontSize=12;" edge="1" parent="1" source="Kg_sOJWb3HzbP19iZcao-2" target="Kg_sOJWb3HzbP19iZcao-4">
          <mxGeometry relative="1" as="geometry" />
        </mxCell>
        <mxCell id="Kg_sOJWb3HzbP19iZcao-2" value="Display Main Menu" style="whiteSpace=wrap;html=1;fontSize=12;" vertex="1" parent="1">
          <mxGeometry x="400" y="130" width="120" height="60" as="geometry" />
        </mxCell>
        <mxCell id="Kg_sOJWb3HzbP19iZcao-13" value="" style="edgeStyle=orthogonalEdgeStyle;rounded=0;orthogonalLoop=1;jettySize=auto;html=1;fontSize=12;" edge="1" parent="1" source="Kg_sOJWb3HzbP19iZcao-4" target="Kg_sOJWb3HzbP19iZcao-12">
          <mxGeometry relative="1" as="geometry" />
        </mxCell>
        <mxCell id="Kg_sOJWb3HzbP19iZcao-20" value="" style="edgeStyle=orthogonalEdgeStyle;rounded=0;orthogonalLoop=1;jettySize=auto;html=1;" edge="1" parent="1" source="Kg_sOJWb3HzbP19iZcao-4" target="Kg_sOJWb3HzbP19iZcao-19">
          <mxGeometry relative="1" as="geometry" />
        </mxCell>
        <mxCell id="Kg_sOJWb3HzbP19iZcao-22" value="" style="edgeStyle=orthogonalEdgeStyle;rounded=0;orthogonalLoop=1;jettySize=auto;html=1;" edge="1" parent="1" source="Kg_sOJWb3HzbP19iZcao-4" target="Kg_sOJWb3HzbP19iZcao-21">
          <mxGeometry relative="1" as="geometry" />
        </mxCell>
        <mxCell id="Kg_sOJWb3HzbP19iZcao-4" value="user selectoin" style="rhombus;whiteSpace=wrap;html=1;fontSize=12;" vertex="1" parent="1">
          <mxGeometry x="420" y="210" width="80" height="80" as="geometry" />
        </mxCell>
        <mxCell id="Kg_sOJWb3HzbP19iZcao-12" value="exit" style="whiteSpace=wrap;html=1;fontSize=12;" vertex="1" parent="1">
          <mxGeometry x="400" y="310" width="120" height="30" as="geometry" />
        </mxCell>
        <mxCell id="Kg_sOJWb3HzbP19iZcao-17" value="" style="edgeStyle=orthogonalEdgeStyle;rounded=0;orthogonalLoop=1;jettySize=auto;html=1;fontSize=12;" edge="1" parent="1" source="Kg_sOJWb3HzbP19iZcao-16" target="Kg_sOJWb3HzbP19iZcao-12">
          <mxGeometry relative="1" as="geometry" />
        </mxCell>
        <mxCell id="Kg_sOJWb3HzbP19iZcao-16" value="end" style="ellipse;whiteSpace=wrap;html=1;fontSize=12;" vertex="1" parent="1">
          <mxGeometry x="400" y="350" width="120" height="80" as="geometry" />
        </mxCell>
        <mxCell id="Kg_sOJWb3HzbP19iZcao-19" value="Run Cipher Interface" style="whiteSpace=wrap;html=1;" vertex="1" parent="1">
          <mxGeometry x="240" y="220" width="120" height="60" as="geometry" />
        </mxCell>
        <mxCell id="Kg_sOJWb3HzbP19iZcao-21" value="show history screen" style="whiteSpace=wrap;html=1;" vertex="1" parent="1">
          <mxGeometry x="560" y="220" width="120" height="60" as="geometry" />
        </mxCell>
      </root>
    </mxGraphModel>
  </diagram>
</mxfile>
